Ostrich_Running_Kinematics
version=1
nRows=18
nColumns=28
inDegrees=no
endheader
time	/jointset/pelvis/pelvis_tilt/value	/jointset/pelvis/pelvis_list/value	/jointset/pelvis/pelvis_rotation/value	/jointset/pelvis/pelvis_tx/value	/jointset/pelvis/pelvis_ty/value	/jointset/pelvis/pelvis_tz/value	/jointset/R_hip/R_hip_extension/value	/jointset/R_hip/R_hip_abduction/value	/jointset/R_hip/R_hip_rotation/value	/jointset/knee/R_knee_angle/value	/jointset/knee/R_knee_varus/value	/jointset/knee/R_knee_rotation/value	/jointset/R_ankle/R_ankle_angle/value	/jointset/R_ankle/R_ankle_abduction/value	/jointset/R_ankle/R_ankle_rotation/value	/jointset/R_mtp/R_mtp_angle/value	/jointset/R_mtp/R_mtp_abduction/value	/jointset/R_mtp/R_mtp_rotation/value	/jointset/L_hip/L_hip_extension/value	/jointset/L_hip/L_hip_abduction/value	/jointset/L_hip/L_hip_rotation/value	/jointset/knee_0/L_knee_angle/value	/jointset/knee_0/L_knee_varus/value	/jointset/knee_0/L_knee_rotation/value	/jointset/L_ankle/L_ankle_angle/value	/jointset/L_ankle/L_ankle_abduction/value	/jointset/L_mtp/L_mtp_angle/value
      0.34500000	      0.26398105	      0.09089675	     -0.02310118	      1.24274040	      0.95418253	     -0.84817320	      1.16738092	     -0.38287288	     -0.46588074	     -1.72969110	     -0.31641074	     -0.16119512	      0.21359339	      0.05942148	     -0.10804810	     -0.34170056	      0.45354126	      0.05925916	      0.95567249	     -0.25773277	     -0.42599996	     -2.19195901	     -0.37767180	     -0.34995597	      1.87779974	      0.06933495	     -2.73004402
      0.34900000	      0.26513995	      0.09131563	     -0.02261528	      1.25584264	      0.95284132	     -0.84729384	      1.16807906	     -0.38514879	     -0.46864534	     -1.74471490	     -0.32273581	     -0.16344031	      0.21359339	      0.05646001	     -0.11164068	     -0.33032101	      0.45483978	      0.06070150	      0.96451083	     -0.26046945	     -0.42115493	     -2.18246442	     -0.38025488	     -0.34952313	      1.88156965	      0.07318584	     -2.71440587
      0.35300000	      0.26616271	      0.09172403	     -0.02212833	      1.26895736	      0.95056214	     -0.84639762	      1.16815934	     -0.38712101	     -0.47147277	     -1.75894282	     -0.32894569	     -0.16580384	      0.21360387	      0.05374357	     -0.11511598	     -0.32098350	      0.45602312	      0.06199724	      0.97379947	     -0.26327943	     -0.41585960	     -2.17244623	     -0.38254476	     -0.34873424	      1.88387349	      0.07731006	     -2.69614972
      0.35700000	      0.26702839	      0.09212197	     -0.02163824	      1.28208716	      0.95047146	     -0.84548458	      1.16760083	     -0.38876162	     -0.47437002	     -1.77220732	     -0.33501246	     -0.16827313	      0.21365972	      0.05128057	     -0.11847330	     -0.31370897	      0.45710522	      0.06313240	      0.98351049	     -0.26616969	     -0.41016983	     -2.16204406	     -0.38454839	     -0.34761025	      1.88492069	      0.08169293	     -2.67534540
      0.36100000	      0.26772304	      0.09249896	     -0.02114362	      1.29523492	      0.94989290	     -0.84455498	      1.16637561	     -0.39003920	     -0.47734057	     -1.78442463	     -0.34091865	     -0.17084016	      0.21377840	      0.04908075	     -0.12171123	     -0.30852534	      0.45810355	      0.06409338	      0.98174770	     -0.24879983	     -0.41981452	     -2.13781889	     -0.37968591	     -0.34232190	      1.87469306	      0.07932871	     -2.62392800
      0.36500000	      0.26823965	      0.09283406	     -0.02064375	      1.30840380	      0.94958803	     -0.84360930	      1.16444877	     -0.39091885	     -0.48038442	     -1.79559473	     -0.34665730	     -0.17350144	      0.21395991	      0.04715531	     -0.12482769	     -0.30546753	      0.45903905	      0.06486691	      0.94474672	     -0.17048202	     -0.47619563	     -2.07275302	     -0.35479053	     -0.32518975	      1.83294478	      0.05622055	     -2.48569792
      0.36900000	      0.26850494	      0.09312728	     -0.02013551	      1.32160748	      0.94967393	     -0.84264290	      1.16157247	     -0.39118414	     -0.48348413	     -1.80536858	     -0.35210272	     -0.17629536	      0.21428105	      0.04561383	     -0.12777800	     -0.30529997	      0.45984888	      0.06537375	      0.94388104	     -0.16815026	     -0.48157125	     -2.05292608	     -0.35589358	     -0.32128021	      1.83266553	      0.06320186	     -2.47704109
      0.37300000	      0.26858174	      0.09339955	     -0.01962204	      1.33484242	      0.94905117	     -0.84166216	      1.15797360	     -0.39094677	     -0.48659430	     -1.81409522	     -0.35732824	     -0.17920343	      0.21472786	      0.04437395	     -0.13059845	     -0.30738390	      0.46056446	      0.06567220	      0.94323527	     -0.16600699	     -0.48676884	     -2.03236610	     -0.35680813	     -0.31714029	      1.83060604	      0.07060311	     -2.46691818
      0.37700000	      0.26844909	      0.09365088	     -0.01910263	      1.34811110	      0.95032109	     -0.84066804	      1.15368009	     -0.39019279	     -0.48970099	     -1.82170486	     -0.36229894	     -0.18223332	      0.21530731	      0.04343636	     -0.13328416	     -0.31176816	      0.46115788	      0.06576226	      0.94281639	     -0.16405920	     -0.49178142	     -2.01114290	     -0.35752023	     -0.31280489	      1.82669650	      0.07842148	     -2.45546882
      0.38100000	      0.26809654	      0.09388475	     -0.01857659	      1.36141614	      0.95125403	     -0.83966144	      1.14871637	     -0.38890474	     -0.49277975	     -1.82823239	     -0.36699387	     -0.18539236	      0.21604035	      0.04280071	     -0.13582920	     -0.31850863	      0.46160468	      0.06564463	      0.94263488	     -0.16231527	     -0.49659853	     -1.98925647	     -0.35801241	     -0.30831939	      1.82100673	      0.08665350	     -2.44269301
      0.38500000	      0.26752407	      0.09410815	     -0.01804321	      1.37476030	      0.95242691	     -0.83864320	      1.14310339	     -0.38706167	     -0.49579568	     -1.83381745	     -0.37140606	     -0.18868755	      0.21696188	      0.04246561	     -0.13822659	     -0.32766811	      0.46188393	      0.06532069	      0.94270469	     -0.16078497	     -0.50120620	     -1.96663700	     -0.35826374	     -0.30373965	      1.81374616	      0.09529498	     -2.42845112
      0.38900000	      0.26664442	      0.09434552	     -0.01750677	      1.38816118	      0.95399757	     -0.83761200	      1.13669454	     -0.38447858	     -0.49865802	     -1.83786661	     -0.37539938	     -0.19219217	      0.21816267	      0.04251727	     -0.14041593	     -0.34020656	      0.46185601	      0.06473287	      0.94309564	     -0.15956044	     -0.50550669	     -1.94345903	     -0.35817996	     -0.29907613	      1.80425157	      0.10446843	     -2.41225447
      0.39300000	      0.26554486	      0.09461430	     -0.01696823	      1.40160724	      0.95530772	     -0.83657270	      1.12976210	     -0.38135095	     -0.50134234	     -1.84097330	     -0.37903664	     -0.19587481	      0.21961478	      0.04284434	     -0.14244295	     -0.35539441	      0.46153487	      0.06395340	      0.94372745	     -0.15856002	     -0.50958727	     -1.91975746	     -0.35785533	     -0.29443355	      1.79308146	      0.11402620	     -2.39448701
      0.39700000	      0.26421143	      0.09491450	     -0.01642920	      1.41510044	      0.95778696	     -0.83552618	      1.12232001	     -0.37766482	     -0.50380674	     -1.84320732	     -0.38229692	     -0.19974246	      0.22134615	      0.04343775	     -0.14430836	     -0.37330149	      0.46085070	      0.06298579	      0.94460012	     -0.15777532	     -0.51346190	     -1.89567191	     -0.35728286	     -0.28982588	      1.78030565	      0.12395293	     -2.37528839
      0.40100000	      0.26264413	      0.09525309	     -0.01589129	      1.42864232	      0.96006581	     -0.83447348	      1.11439622	     -0.37342017	     -0.50601633	     -1.84456867	     -0.38515577	     -0.20380210	      0.22338818	      0.04428808	     -0.14601390	     -0.39399761	      0.45973369	      0.06183283	      0.94569967	     -0.15719343	     -0.51714106	     -1.87127221	     -0.35645557	     -0.28528454	      1.76599395	      0.13423257	     -2.35465860
      0.40500000	      0.26085691	      0.09564404	     -0.01535610	      1.44223400	      0.96250600	     -0.83341580	      1.10603260	     -0.36863099	     -0.50794317	     -1.84498755	     -0.38758527	     -0.20806070	      0.22577579	      0.04538554	     -0.14756235	     -0.41755257	      0.45811402	      0.06049660	      0.94699820	     -0.15679689	     -0.52063172	     -1.84655835	     -0.35536649	     -0.28085838	      1.75021617	      0.14484837	     -2.33245801
      0.40900000	      0.25879044	      0.09609085	     -0.01482539	      1.45589336	      0.96516410	     -0.83235292	      1.09709651	     -0.36308783	     -0.50942321	     -1.84442905	     -0.38937248	     -0.21259856	      0.22869398	      0.04679018	     -0.14891673	     -0.44503103	      0.45567056	      0.05892022	      0.94852013	     -0.15660141	     -0.52389897	     -1.82156523	     -0.35395626	     -0.27659978	      1.73242778	      0.15585930	     -2.30858191
      0.41300000	      0.25650406	      0.09656907	     -0.01429959	      1.46960432	      0.96832746	     -0.83128746	      1.08778344	     -0.35700012	     -0.51053673	     -1.84303278	     -0.39065705	     -0.21735632	      0.23206247	      0.04841264	     -0.15014753	     -0.47550448	      0.45247312	      0.05716372	      0.95016772	     -0.15652008	     -0.52704056	     -1.79636268	     -0.35228424	     -0.27250873	      1.71321519	      0.16712365	     -2.28355389
